<svg width="212" height="50" viewBox="0 0 212 50" fill="none" xmlns="http://www.w3.org/2000/svg">
<path d="M7.85647 20.6187C8.86659 19.1188 10.2508 17.9 12.0092 16.9625C13.8049 16.025 15.8439 15.5563 18.126 15.5563C20.7822 15.5563 23.1766 16.2125 25.3091 17.525C27.4789 18.8375 29.1812 20.7125 30.4158 23.15C31.6878 25.55 32.3238 28.3438 32.3238 31.5312C32.3238 34.7188 31.6878 37.55 30.4158 40.025C29.1812 42.4625 27.4789 44.3563 25.3091 45.7063C23.1766 47.0563 20.7822 47.7313 18.126 47.7313C15.8065 47.7313 13.7675 47.2812 12.0092 46.3812C10.2882 45.4437 8.904 44.2437 7.85647 42.7812V47.225H0V5.6H7.85647V20.6187ZM24.2989 31.5312C24.2989 29.6562 23.9061 28.0437 23.1205 26.6937C22.3722 25.3062 21.3621 24.2563 20.0901 23.5437C18.8624 22.833 17.4674 22.4641 16.0496 22.475C14.628 22.475 13.2812 22.85 12.0092 23.6C10.7746 24.3125 9.76447 25.3625 8.97882 26.75C8.23059 28.1375 7.85647 29.7688 7.85647 31.6438C7.85647 33.5188 8.23059 35.15 8.97882 36.5375C9.76447 37.925 10.7746 38.9938 12.0092 39.7438C13.2812 40.4563 14.628 40.8125 16.0496 40.8125C17.5087 40.8125 18.8555 40.4375 20.0901 39.6875C21.3621 38.9375 22.3722 37.8687 23.1205 36.4813C23.9061 35.0938 24.2989 33.4438 24.2989 31.5312ZM42.0165 12.35C40.6323 12.35 39.4725 11.9188 38.5372 11.0563C37.6394 10.1563 37.1904 9.05 37.1904 7.7375C37.1904 6.425 37.6394 5.3375 38.5372 4.475C39.4725 3.575 40.6323 3.125 42.0165 3.125C43.4008 3.125 44.5418 3.575 45.4397 4.475C46.375 5.3375 46.8426 6.425 46.8426 7.7375C46.8426 9.05 46.375 10.1563 45.4397 11.0563C44.5418 11.9188 43.4008 12.35 42.0165 12.35ZM45.8886 16.0625V47.225H38.0322V16.0625H45.8886ZM72.0582 47.225L61.5081 33.95V47.225H53.6516V5.6H61.5081V29.2812L71.9459 16.0625H82.1594L68.4666 31.7L82.2716 47.225H72.0582ZM82.8437 31.6438C82.8437 28.4188 83.4984 25.6063 84.8078 23.2063C86.1172 20.7688 87.9317 18.8938 90.2512 17.5813C92.5707 16.2312 95.227 15.5563 98.2199 15.5563C102.073 15.5563 105.253 16.5312 107.76 18.4812C110.304 20.3937 112.006 23.0937 112.867 26.5812H104.394C103.945 25.2312 103.179 24.1812 102.094 23.4312C101.046 22.6438 99.7366 22.25 98.1653 22.25C95.9206 22.25 94.1436 23.075 92.8342 24.725C91.5248 26.3375 90.8701 28.6438 90.8701 31.6438C90.8701 34.6063 91.5248 36.9125 92.8342 38.5625C94.1436 40.175 95.9206 40.9813 98.1653 40.9813C101.345 40.9813 103.422 39.5563 104.394 36.7062H112.868C112.008 40.0812 110.305 42.7625 107.761 44.75C105.217 46.7375 102.037 47.7313 98.2215 47.7313C95.2285 47.7313 92.5723 47.075 90.2528 45.7625C87.9516 44.4316 86.0665 42.4836 84.8093 40.1375C83.4999 37.7 82.8452 34.8688 82.8452 31.6438H82.8437ZM124.921 20.9C125.884 19.2961 127.235 17.9613 128.849 17.0188C130.495 16.0813 132.366 15.6125 134.461 15.6125V23.8813H132.385C129.915 23.8813 128.045 24.4625 126.773 25.625C125.538 26.7875 124.921 28.8125 124.921 31.7V47.225H117.065V16.0625H124.921V20.9ZM158.551 42.7812C157.691 44.2062 156.288 45.4062 154.342 46.3812C152.397 47.3187 150.302 47.7875 148.057 47.7875C146.112 47.7875 144.353 47.3937 142.782 46.6062C141.211 45.8187 139.976 44.7313 139.078 43.3438C138.18 41.9562 137.731 40.3625 137.731 38.5625C137.731 35.675 138.798 33.3125 140.93 31.475C143.1 29.6375 146.336 28.7187 150.638 28.7187H158.551C158.476 26.7312 157.896 25.1562 156.811 23.9937C155.764 22.7938 154.305 22.1938 152.434 22.1938C150.788 22.1938 149.423 22.6437 148.338 23.5437C147.253 24.4062 146.561 25.625 146.261 27.2H138.405C138.779 24.95 139.583 22.9438 140.818 21.1812C142.079 19.3906 143.78 17.9567 145.756 17.0188C147.814 16.0063 150.115 15.5 152.659 15.5C155.278 15.5 157.634 16.0437 159.73 17.1312C161.811 18.1702 163.546 19.792 164.724 21.8C165.921 23.825 166.52 26.2063 166.52 28.9438V47.225H158.551V42.7812ZM150.358 41.4313C151.667 41.4313 152.939 41.15 154.174 40.5875C155.446 40.025 156.493 39.1813 157.316 38.0563C158.14 36.9313 158.551 35.6 158.551 34.0625V33.8375H151.087C149.292 33.8375 147.945 34.1938 147.047 34.9062C146.186 35.6188 145.756 36.5562 145.756 37.7188C145.756 38.8438 146.149 39.7438 146.935 40.4188C147.758 41.0938 148.899 41.4313 150.358 41.4313ZM183.089 22.5312V47.225H175.12V22.5312H171.584V16.0625H175.12V14.4875C175.12 10.6625 176.205 7.85 178.375 6.05C180.544 4.25 183.818 3.40625 188.195 3.51875V10.1562C186.287 10.1188 184.959 10.4375 184.211 11.1125C183.463 11.7875 183.089 13.0062 183.089 14.7687V16.0625H193.299V8.35625H201.211V16.0625H208.17V22.5312H201.211V37.6063C201.211 38.6562 201.455 39.425 201.941 39.9125C202.465 40.3625 203.325 40.5875 204.522 40.5875H208.17V47.225H203.232C196.61 47.225 193.299 44 193.299 37.55V22.5312H183.089Z" fill="white"/>
</svg>
