<svg width="29" height="23" viewBox="0 0 29 23" fill="none" xmlns="http://www.w3.org/2000/svg">
<path fill-rule="evenodd" clip-rule="evenodd" d="M6.0234 0C4.36868 0 3.14429 1.44191 3.1991 3.00567C3.25169 4.508 3.18337 6.45372 2.69135 8.04047C2.19786 9.63183 1.36324 10.64 0 10.7694V12.2306C1.36324 12.36 2.19786 13.3682 2.69135 14.9596C3.18337 16.5463 3.25169 18.4921 3.1991 19.9944C3.14429 21.5579 4.36868 23 6.02364 23H22.9788C24.6336 23 25.8577 21.5582 25.8029 19.9944C25.7503 18.4921 25.8186 16.5463 26.3106 14.9596C26.8043 13.3682 27.6368 12.36 29 12.2306V10.7694C27.6368 10.64 26.8043 9.63183 26.3106 8.04047C25.8186 6.45396 25.7503 4.508 25.8029 3.00567C25.8577 1.44215 24.6336 0 22.9788 0H6.0234ZM19.661 14.1579C19.661 16.3112 18.0478 17.6171 15.3707 17.6171H10.8136C10.6832 17.6171 10.5582 17.5655 10.466 17.4737C10.3738 17.3819 10.322 17.2575 10.322 17.1277V5.87236C10.322 5.74257 10.3738 5.6181 10.466 5.52632C10.5582 5.43454 10.6832 5.383 10.8136 5.383H15.3447C17.5769 5.383 19.0419 6.58682 19.0419 8.43514C19.0419 9.73241 18.0565 10.8939 16.8008 11.0972V11.1651C18.5101 11.3518 19.661 12.5301 19.661 14.1579ZM14.8739 6.93427H12.2753V10.5884H14.4639C16.1557 10.5884 17.0886 9.91009 17.0886 8.69769C17.0886 7.56164 16.2864 6.93427 14.8739 6.93427ZM12.2753 12.0383V16.0653H14.9694C16.7308 16.0653 17.6639 15.3616 17.6639 14.0391C17.6639 12.7164 16.7047 12.0381 14.8561 12.0381L12.2753 12.0383Z" fill="#5602FF"/>
</svg>
