<svg width="191" height="47" viewBox="0 0 191 47" fill="none" xmlns="http://www.w3.org/2000/svg">
<path d="M6.058 15.568H11.882V19H1.612V0.747999H6.058V15.568ZM25.3646 15.776H18.5526L17.4606 19H12.8066L19.4106 0.747999H24.5586L31.1626 19H26.4566L25.3646 15.776ZM24.2206 12.344L21.9586 5.662L19.7226 12.344H24.2206ZM49.5005 19H45.0545L37.6185 7.742V19H33.1725V0.747999H37.6185L45.0545 12.058V0.747999H49.5005V19ZM59.5613 0.747999C61.4853 0.747999 63.1667 1.12933 64.6053 1.892C66.044 2.65467 67.1533 3.72933 67.9333 5.116C68.7307 6.48533 69.1293 8.07133 69.1293 9.874C69.1293 11.6593 68.7307 13.2453 67.9333 14.632C67.1533 16.0187 66.0353 17.0933 64.5793 17.856C63.1407 18.6187 61.468 19 59.5613 19H52.7233V0.747999H59.5613ZM59.2753 15.152C60.9567 15.152 62.2653 14.6927 63.2013 13.774C64.1373 12.8553 64.6053 11.5553 64.6053 9.874C64.6053 8.19267 64.1373 6.884 63.2013 5.948C62.2653 5.012 60.9567 4.544 59.2753 4.544H57.1693V15.152H59.2753ZM76.06 0.747999V19H71.614V0.747999H76.06ZM95.6099 19H91.1639L83.7279 7.742V19H79.2819V0.747999H83.7279L91.1639 12.058V0.747999H95.6099V19ZM110.949 6.52C110.619 5.91333 110.143 5.454 109.519 5.142C108.912 4.81267 108.193 4.648 107.361 4.648C105.922 4.648 104.769 5.12467 103.903 6.078C103.036 7.014 102.603 8.27067 102.603 9.848C102.603 11.5293 103.053 12.8467 103.955 13.8C104.873 14.736 106.13 15.204 107.725 15.204C108.817 15.204 109.735 14.9267 110.481 14.372C111.243 13.8173 111.798 13.02 112.145 11.98H106.503V8.704H116.175V12.838C115.845 13.9473 115.282 14.9787 114.485 15.932C113.705 16.8853 112.708 17.6567 111.495 18.246C110.281 18.8353 108.912 19.13 107.387 19.13C105.584 19.13 103.972 18.74 102.551 17.96C101.147 17.1627 100.046 16.062 99.2487 14.658C98.4687 13.254 98.0787 11.6507 98.0787 9.848C98.0787 8.04533 98.4687 6.442 99.2487 5.038C100.046 3.61667 101.147 2.516 102.551 1.736C103.955 0.938666 105.558 0.539999 107.361 0.539999C109.545 0.539999 111.382 1.06867 112.873 2.126C114.381 3.18333 115.377 4.648 115.863 6.52H110.949ZM138.057 6.624C138.057 7.68133 137.814 8.652 137.329 9.536C136.844 10.4027 136.098 11.1047 135.093 11.642C134.088 12.1793 132.84 12.448 131.349 12.448H128.593V19H124.147V0.747999H131.349C132.805 0.747999 134.036 0.999333 135.041 1.502C136.046 2.00467 136.8 2.698 137.303 3.582C137.806 4.466 138.057 5.48 138.057 6.624ZM131.011 8.912C131.86 8.912 132.493 8.71267 132.909 8.314C133.325 7.91533 133.533 7.352 133.533 6.624C133.533 5.896 133.325 5.33267 132.909 4.934C132.493 4.53533 131.86 4.336 131.011 4.336H128.593V8.912H131.011ZM151.734 15.776H144.922L143.83 19H139.176L145.78 0.747999H150.928L157.532 19H152.826L151.734 15.776ZM150.59 12.344L148.328 5.662L146.092 12.344H150.59ZM171.658 6.52C171.328 5.91333 170.852 5.454 170.228 5.142C169.621 4.81267 168.902 4.648 168.07 4.648C166.631 4.648 165.478 5.12467 164.612 6.078C163.745 7.014 163.312 8.27067 163.312 9.848C163.312 11.5293 163.762 12.8467 164.664 13.8C165.582 14.736 166.839 15.204 168.434 15.204C169.526 15.204 170.444 14.9267 171.19 14.372C171.952 13.8173 172.507 13.02 172.854 11.98H167.212V8.704H176.884V12.838C176.554 13.9473 175.991 14.9787 175.194 15.932C174.414 16.8853 173.417 17.6567 172.204 18.246C170.99 18.8353 169.621 19.13 168.096 19.13C166.293 19.13 164.681 18.74 163.26 17.96C161.856 17.1627 160.755 16.062 159.958 14.658C159.178 13.254 158.788 11.6507 158.788 9.848C158.788 8.04533 159.178 6.442 159.958 5.038C160.755 3.61667 161.856 2.516 163.26 1.736C164.664 0.938666 166.267 0.539999 168.07 0.539999C170.254 0.539999 172.091 1.06867 173.582 2.126C175.09 3.18333 176.086 4.648 176.572 6.52H171.658ZM183.792 4.31V8.002H189.746V11.434H183.792V15.438H190.526V19H179.346V0.747999H190.526V4.31H183.792ZM0.858 36.848C0.858 35.0453 1.248 33.442 2.028 32.038C2.808 30.6167 3.89133 29.516 5.278 28.736C6.682 27.9387 8.268 27.54 10.036 27.54C12.2027 27.54 14.0573 28.112 15.6 29.256C17.1427 30.4 18.174 31.96 18.694 33.936H13.806C13.442 33.1733 12.922 32.5927 12.246 32.194C11.5873 31.7953 10.8333 31.596 9.984 31.596C8.61467 31.596 7.50533 32.0727 6.656 33.026C5.80667 33.9793 5.382 35.2533 5.382 36.848C5.382 38.4427 5.80667 39.7167 6.656 40.67C7.50533 41.6233 8.61467 42.1 9.984 42.1C10.8333 42.1 11.5873 41.9007 12.246 41.502C12.922 41.1033 13.442 40.5227 13.806 39.76H18.694C18.174 41.736 17.1427 43.296 15.6 44.44C14.0573 45.5667 12.2027 46.13 10.036 46.13C8.268 46.13 6.682 45.74 5.278 44.96C3.89133 44.1627 2.808 43.062 2.028 41.658C1.248 40.254 0.858 38.6507 0.858 36.848ZM30.0487 46.182C28.3327 46.182 26.7554 45.7833 25.3167 44.986C23.8954 44.1887 22.76 43.0793 21.9107 41.658C21.0787 40.2193 20.6627 38.6073 20.6627 36.822C20.6627 35.0367 21.0787 33.4333 21.9107 32.012C22.76 30.5907 23.8954 29.4813 25.3167 28.684C26.7554 27.8867 28.3327 27.488 30.0487 27.488C31.7647 27.488 33.3334 27.8867 34.7547 28.684C36.1934 29.4813 37.32 30.5907 38.1347 32.012C38.9667 33.4333 39.3827 35.0367 39.3827 36.822C39.3827 38.6073 38.9667 40.2193 38.1347 41.658C37.3027 43.0793 36.176 44.1887 34.7547 44.986C33.3334 45.7833 31.7647 46.182 30.0487 46.182ZM30.0487 42.126C31.5047 42.126 32.666 41.6407 33.5327 40.67C34.4167 39.6993 34.8587 38.4167 34.8587 36.822C34.8587 35.21 34.4167 33.9273 33.5327 32.974C32.666 32.0033 31.5047 31.518 30.0487 31.518C28.5754 31.518 27.3967 31.9947 26.5127 32.948C25.646 33.9013 25.2127 35.1927 25.2127 36.822C25.2127 38.434 25.646 39.7253 26.5127 40.696C27.3967 41.6493 28.5754 42.126 30.0487 42.126ZM58.1841 46H53.7381L46.3021 34.742V46H41.8561V27.748H46.3021L53.7381 39.058V27.748H58.1841V46ZM73.2889 27.748V31.31H65.8529V35.158H71.4169V38.616H65.8529V46H61.4069V27.748H73.2889ZM80.0717 31.31V35.002H86.0257V38.434H80.0717V42.438H86.8057V46H75.6257V27.748H86.8057V31.31H80.0717ZM94.1381 27.748V46H89.6921V27.748H94.1381ZM110.49 27.748V31.31H105.654V46H101.208V31.31H96.372V27.748H110.49ZM124.083 42.776H117.271L116.179 46H111.525L118.129 27.748H123.277L129.881 46H125.175L124.083 42.776ZM122.939 39.344L120.677 32.662L118.441 39.344H122.939ZM141.199 46L137.403 39.11H136.337V46H131.891V27.748H139.353C140.792 27.748 142.014 27.9993 143.019 28.502C144.042 29.0047 144.805 29.698 145.307 30.582C145.81 31.4487 146.061 32.4193 146.061 33.494C146.061 34.7073 145.715 35.7907 145.021 36.744C144.345 37.6973 143.34 38.3733 142.005 38.772L146.217 46H141.199ZM136.337 35.964H139.093C139.908 35.964 140.515 35.7647 140.913 35.366C141.329 34.9673 141.537 34.404 141.537 33.676C141.537 32.9827 141.329 32.4367 140.913 32.038C140.515 31.6393 139.908 31.44 139.093 31.44H136.337V35.964ZM153.298 27.748V46H148.852V27.748H153.298ZM167.882 42.776H161.07L159.978 46H155.324L161.928 27.748H167.076L173.68 46H168.974L167.882 42.776ZM166.738 39.344L164.476 32.662L162.24 39.344H166.738Z" fill="white"/>
</svg>
