<svg width="53" height="81" viewBox="0 0 53 81" fill="none" xmlns="http://www.w3.org/2000/svg">
<path d="M24.7333 0V24.6522H12.3667C5.55617 24.6522 0 19.1142 0 12.3261C0 5.53793 5.55617 0 12.3667 0H24.7333ZM24.7333 28.1739V52.8261H12.3667C5.55617 52.8261 0 47.2882 0 40.5C0 33.7118 5.55617 28.1739 12.3667 28.1739H24.7333ZM24.7333 56.3478V68.6739C24.7333 75.4621 19.1772 81 12.3667 81C5.55617 81 0 75.4621 0 68.6739C0 61.8858 5.55617 56.3478 12.3667 56.3478H24.7333ZM53 12.3261C53 19.1142 47.4438 24.6522 40.6333 24.6522H28.2667V0H40.6333C47.4438 0 53 5.53793 53 12.3261ZM40.6333 28.1739C37.3535 28.1739 34.208 29.4726 31.8888 31.7841C29.5696 34.0957 28.2667 37.2309 28.2667 40.5C28.2667 43.7691 29.5696 46.9043 31.8888 49.2159C34.208 51.5275 37.3535 52.8261 40.6333 52.8261C43.9132 52.8261 47.0587 51.5275 49.3779 49.2159C51.6971 46.9043 53 43.7691 53 40.5C53 37.2309 51.6971 34.0957 49.3779 31.7841C47.0587 29.4726 43.9132 28.1739 40.6333 28.1739Z" fill="#AEAEAE"/>
</svg>
