<svg xmlns="http://www.w3.org/2000/svg" width="114" height="33" fill="none"><path fill="#fff" d="M22.5 5.25v2.5H20v-2.5H10v2.5H7.5v-2.5H5v22.5h2.5v-2.5H10v2.5h10v-2.5h2.5v2.5H25V5.25zM10 22.75H7.5v-2.5H10zm0-5H7.5v-2.5H10zm0-5H7.5v-2.5H10zm12.5 10H20v-2.5h2.5zm0-5H20v-2.5h2.5zm0-5H20v-2.5h2.5zM44.456 8.152v3.288h-6.864v3.552h5.136v3.192h-5.136V25h-4.104V8.152zm4.221 2.064q-1.08 0-1.776-.624a2.12 2.12 0 0 1-.672-1.584q0-.96.672-1.584.696-.648 1.776-.648 1.056 0 1.728.648.696.624.696 1.584 0 .936-.696 1.584-.672.624-1.728.624m2.04 1.392V25h-4.104V11.608zm7.078-4.368V25h-4.104V7.24zm20.062 4.224q2.496 0 3.96 1.512 1.488 1.512 1.488 4.2V25h-4.08v-7.272q0-1.296-.696-1.992-.672-.72-1.872-.72t-1.896.72q-.672.696-.672 1.992V25h-4.08v-7.272q0-1.296-.696-1.992-.672-.72-1.872-.72t-1.896.72q-.672.696-.672 1.992V25H60.77V11.608h4.104v1.68q.624-.84 1.632-1.32 1.008-.504 2.28-.504 1.512 0 2.688.648a4.63 4.63 0 0 1 1.872 1.848 5.4 5.4 0 0 1 1.896-1.8 5.1 5.1 0 0 1 2.616-.696M98.8 18.088q0 .576-.072 1.2H89.44q.097 1.248.793 1.92.72.648 1.752.648 1.535 0 2.136-1.296h4.367a5.9 5.9 0 0 1-1.224 2.376 5.96 5.96 0 0 1-2.184 1.656q-1.32.6-2.951.6-1.968 0-3.504-.84a5.98 5.98 0 0 1-2.4-2.4q-.865-1.56-.865-3.648t.84-3.648a5.98 5.98 0 0 1 2.4-2.4q1.537-.84 3.528-.84 1.945 0 3.457.816a5.8 5.8 0 0 1 2.352 2.328q.863 1.512.863 3.528m-4.2-1.08q0-1.056-.72-1.68t-1.8-.624q-1.03 0-1.751.6-.697.6-.865 1.704zm11.814 8.184q-1.752 0-3.12-.6t-2.16-1.632a4.4 4.4 0 0 1-.888-2.352h4.056q.072.696.648 1.128t1.416.432q.768 0 1.176-.288.432-.312.432-.792 0-.576-.6-.84-.6-.288-1.944-.624-1.44-.336-2.4-.696a4.3 4.3 0 0 1-1.656-1.176q-.696-.816-.696-2.184 0-1.152.624-2.088.648-.96 1.872-1.512 1.248-.552 2.952-.552 2.52 0 3.96 1.248 1.464 1.248 1.68 3.312h-3.792a1.62 1.62 0 0 0-.624-1.104q-.504-.408-1.344-.408-.72 0-1.104.288a.85.85 0 0 0-.384.744q0 .576.6.864.624.288 1.92.576 1.488.384 2.424.768.936.36 1.632 1.2.72.816.744 2.208 0 1.176-.672 2.112-.648.912-1.896 1.44-1.224.528-2.856.528"/></svg>