<svg width="76" height="77" viewBox="0 0 76 77" fill="none" xmlns="http://www.w3.org/2000/svg">
<path d="M74.0058 33.6287L42.8081 2.02046C41.4851 0.673489 39.7425 0 38 0C36.2575 0 34.5149 0.673489 33.1919 2.02046L27.0221 8.27148L34.6569 16.0068C37.1933 14.4963 40.4976 14.8233 42.6726 17.0268C44.8475 19.2304 45.1637 22.5782 43.6729 25.1414L51.1787 32.7459C53.715 31.2355 57.0194 31.5624 59.1943 33.766C61.7758 36.3815 61.7758 40.6185 59.1943 43.234C56.6128 45.8495 52.4307 45.8495 49.8492 43.234C47.6743 41.0305 47.3516 37.6827 48.8424 35.1129L41.3366 27.5084C40.801 27.8288 40.2395 28.0642 39.6522 28.2146V48.7789C42.4983 49.5243 44.6087 52.1202 44.6087 55.2391C44.6087 58.94 41.6529 61.9348 38 61.9348C34.3471 61.9348 31.3913 58.94 31.3913 55.2391C31.3913 52.1202 33.5017 49.5243 36.3478 48.7789V28.2146C35.2442 27.9269 34.1923 27.3711 33.3274 26.4949C31.1525 24.2914 30.8363 20.9435 32.3271 18.3804L24.6858 10.6385L1.99423 33.6287C-0.664742 36.3161 -0.664742 40.6839 1.99423 43.3713L33.1919 74.9795C34.5149 76.3265 36.2575 77 38 77C39.7425 77 41.4851 76.3265 42.8081 74.9795L74.0058 43.3713C76.6647 40.6839 76.6647 36.3161 74.0058 33.6287Z" fill="#AEAEAE"/>
</svg>
