<svg width="82" height="81" viewBox="0 0 82 81" fill="none" xmlns="http://www.w3.org/2000/svg">
<path d="M41 0C18.3578 0 0 18.4178 0 41.1342C0 60.4089 13.2293 76.5369 31.0643 81C30.873 80.4447 30.75 79.8003 30.75 79.0016V71.9711C29.0861 71.9711 26.2981 71.9711 25.5977 71.9711C22.7926 71.9711 20.2984 70.761 19.0889 68.5124C17.7462 66.0135 17.5138 62.1914 14.186 59.8536C13.1986 59.0755 13.9502 58.1877 15.088 58.3077C17.1893 58.9041 18.9317 60.3507 20.5718 62.4965C22.2049 64.6458 22.9737 65.1325 26.0247 65.1325C27.5042 65.1325 29.7182 65.0468 31.8023 64.7177C32.923 61.8623 34.8602 59.2332 37.228 57.9923C23.575 56.5835 17.0594 49.7689 17.0594 40.5171C17.0594 36.534 18.7507 32.6811 21.6241 29.4349C20.6811 26.2127 19.4955 19.6416 21.9863 17.1392C28.1294 17.1392 31.8433 21.1361 32.7351 22.2159C35.7964 21.1635 39.1584 20.5671 42.6912 20.5671C46.2309 20.5671 49.6066 21.1635 52.6748 22.2227C53.5563 21.1498 57.2736 17.1392 63.4304 17.1392C65.9314 19.645 64.7322 26.2436 63.7789 29.4589C66.6353 32.6982 68.3163 36.5408 68.3163 40.5171C68.3163 49.762 61.8109 56.5732 48.1784 57.9889C51.9299 59.953 54.6667 65.4719 54.6667 69.6298V79.0016C54.6667 79.3581 54.5881 79.6152 54.5471 79.9202C70.5234 74.302 82 59.0824 82 41.1342C82 18.4178 63.6423 0 41 0Z" fill="#AEAEAE"/>
</svg>
