<svg width="76" height="84" viewBox="0 0 76 84" fill="none" xmlns="http://www.w3.org/2000/svg">
<path d="M75.5143 0.592052C75.1674 0.213995 74.6686 0 74.1482 0H1.85182C1.33139 0 0.832647 0.213995 0.485694 0.592052C0.131511 0.970109 -0.0419653 1.47656 0.00863251 1.99015L6.52123 73.9851C6.58629 74.7412 7.12117 75.3689 7.85845 75.5829L37.4868 83.9287C37.6458 83.9786 37.8193 84 37.9928 84C38.1662 84 38.3325 83.9786 38.4987 83.9287L68.1488 75.5829C68.8861 75.3689 69.4137 74.7412 69.486 73.9851L75.9914 1.99015C76.042 1.47656 75.8685 0.970109 75.5143 0.592052ZM59.9231 25.4154H25.1121L25.9434 34.7099H59.0846L56.5981 62.1797L37.9855 67.7293L37.8048 67.6722L19.4091 62.1726L18.4044 50.9806H27.4179L27.8083 55.3247L38.094 57.4504L48.1917 55.3247L49.2687 43.5693H17.7322L15.2818 16.5346H60.7254L59.9231 25.4154Z" fill="#AEAEAE"/>
</svg>
