<svg width="32" height="35" viewBox="0 0 32 35" fill="none" xmlns="http://www.w3.org/2000/svg">
<path d="M31.7955 0.410783C31.6494 0.25776 31.4394 0.171143 31.2203 0.171143H0.779714C0.560586 0.171143 0.350588 0.25776 0.204503 0.410783C0.0553732 0.563806 -0.0176696 0.768799 0.00363474 0.976679L2.74578 30.1175C2.77317 30.4235 2.99839 30.6776 3.30882 30.7642L15.7839 34.1423C15.8509 34.1625 15.9239 34.1711 15.997 34.1711C16.07 34.1711 16.14 34.1625 16.21 34.1423L28.6942 30.7642C29.0047 30.6776 29.2268 30.4235 29.2573 30.1175L31.9964 0.976679C32.0177 0.768799 31.9446 0.563806 31.7955 0.410783ZM25.2308 10.4583H10.5735L10.9235 14.2204H24.8777L23.8308 25.3391L15.9939 27.5854L15.9178 27.5623L8.17225 25.3362L7.74921 20.8062H11.5444L11.7087 22.5645L16.0396 23.4249L20.2913 22.5645L20.7447 17.8063H7.46617L6.43444 6.86374H25.5686L25.2308 10.4583Z" fill="#FB6A02"/>
</svg>
