<svg width="35" height="35" viewBox="0 0 35 35" fill="none" xmlns="http://www.w3.org/2000/svg">
<path d="M32.8388 0H3.08938C1.89458 0 0.924805 0.969779 0.924805 2.16457V31.9108C0.924805 33.1056 1.89458 34.0754 3.08938 34.0754H32.8356C34.0304 34.0754 35.0002 33.1056 35.0002 31.914V2.16457C35.0002 0.969779 34.0304 0 32.8388 0ZM19.5851 26.1111C19.5851 29.3532 17.6836 30.8301 14.9074 30.8301C12.3974 30.8301 10.5877 29.1472 9.84931 27.5848L12.4005 26.0414C12.8917 26.9129 13.6397 27.5848 14.7172 27.5848C15.7472 27.5848 16.3399 27.1823 16.3399 25.6167V15.415H19.5851V26.1111ZM26.6239 30.8301C23.7495 30.8301 22.1173 29.3818 21.2078 27.5848L23.6417 25.9622C24.3041 27.0461 25.0267 28.0824 26.5542 28.0824C27.8378 28.0824 28.5096 27.4422 28.5096 26.5548C28.5096 25.4963 27.8124 25.1192 26.4021 24.5012L25.6288 24.1684C23.3945 23.2176 21.9082 22.026 21.9082 19.5033C21.9082 17.1835 23.6797 15.415 26.4433 15.415C28.4114 15.415 29.8249 16.0996 30.8453 17.8934L28.4367 19.4431C27.9043 18.4892 27.3338 18.1152 26.4433 18.1152C25.5369 18.1152 24.9633 18.692 24.9633 19.4431C24.9633 20.3717 25.5369 20.7457 26.8648 21.3225L27.6381 21.6552C30.2717 22.7803 31.7549 23.9307 31.7549 26.5168C31.7549 29.3025 29.565 30.8301 26.6239 30.8301Z" fill="#FFC400"/>
</svg>
