<svg width="82" height="82" viewBox="0 0 82 82" fill="none" xmlns="http://www.w3.org/2000/svg">
<path d="M76.125 0.201904H5.18231C2.33312 0.201904 0.0205078 2.51452 0.0205078 5.36371V76.2989C0.0205078 79.1481 2.33312 81.4607 5.18231 81.4607H76.1175C78.9667 81.4607 81.2793 79.148 81.2793 76.3064V5.36371C81.2793 2.51452 78.9667 0.201904 76.125 0.201904ZM44.5194 62.4685C44.5194 70.1999 39.9848 73.7217 33.3644 73.7217C27.3788 73.7217 23.0635 69.7087 21.3026 65.9828L27.3864 62.3023C28.5578 64.3806 30.3414 65.9828 32.911 65.9828C35.3672 65.9828 36.7804 65.023 36.7804 61.2896V36.9618H44.5194V62.4685ZM61.3047 73.7217C54.45 73.7217 50.5578 70.2679 48.3888 65.9828L54.193 62.1133C55.7725 64.698 57.4957 67.1693 61.1384 67.1693C64.1992 67.1693 65.8014 65.6427 65.8014 63.5266C65.8014 61.0024 64.1387 60.103 60.7756 58.6293L58.9316 57.8358C53.6035 55.5685 50.059 52.7269 50.059 46.7111C50.059 41.1789 54.2837 36.9618 60.8739 36.9618C65.5671 36.9618 68.9378 38.5942 71.3713 42.8718L65.6276 46.5675C64.3579 44.2926 62.9976 43.4008 60.8739 43.4008C58.7124 43.4008 57.3445 44.7763 57.3445 46.5675C57.3445 48.7818 58.7124 49.6736 61.879 51.0491L63.7231 51.8426C70.0034 54.5256 73.5403 57.269 73.5403 63.4359C73.5403 70.079 68.3181 73.7217 61.3047 73.7217Z" fill="#AEAEAE"/>
</svg>
