<svg width="23" height="23" viewBox="0 0 23 23" fill="none" xmlns="http://www.w3.org/2000/svg">
<path d="M12.7472 5.36789C12.1448 3.90309 12.2301 2.25608 13.0983 0.929867L13.7481 0C12.5471 2.25224 13.6904 5.01776 15.5311 6.46734C15.8539 6.72044 16.202 6.94157 16.5673 7.12367C16.7595 7.21953 16.9574 7.30422 17.1583 7.37853C17.3149 7.4361 17.4934 7.49696 17.6559 7.53805C19.7128 8.05626 21.3892 7.6984 22.3867 6.2075C22.3562 6.25325 22.3171 6.32576 22.267 6.41828C21.8225 7.24224 20.521 9.65396 16.7463 8.89695C16.6751 8.88311 16.606 8.85971 16.5371 8.83639C16.5166 8.82945 16.4961 8.82251 16.4755 8.81583C16.4608 8.8113 16.4463 8.80642 16.4318 8.80155C16.4186 8.79714 16.4055 8.79273 16.3924 8.78861C16.385 8.78603 16.3776 8.78345 16.3703 8.78088C16.3143 8.76127 16.259 8.74187 16.2036 8.7205C14.6842 8.14229 13.3825 6.92257 12.7472 5.36789Z" fill="#0077FF"/>
<path d="M7.78177 2.84233C6.3091 5.04215 6.38902 7.98689 7.53782 10.3135C7.73047 10.7035 7.94699 11.0818 8.18915 11.4421C8.21524 11.4809 8.24166 11.5206 8.26845 11.5608C8.46833 11.8609 8.68902 12.1922 8.94726 12.4247C9.05343 12.5461 9.16437 12.6643 9.27769 12.7807C9.29908 12.8034 9.32083 12.8253 9.34266 12.8475L9.36478 12.8699C9.47482 12.9807 9.58662 13.0897 9.70239 13.1956C9.70479 13.1975 9.70709 13.1996 9.70929 13.2018C9.71149 13.204 9.7137 13.2061 9.71609 13.2079L9.71744 13.2092L9.71935 13.2111C9.84729 13.3275 9.97935 13.4395 10.1136 13.5497C10.1308 13.5633 10.1478 13.5773 10.1649 13.5912C10.1776 13.6016 10.1903 13.6119 10.2031 13.6222C10.3376 13.7293 10.4748 13.8346 10.6155 13.9349L10.621 13.9391L10.6275 13.9442C10.6728 13.9767 10.7187 14.0076 10.7648 14.0386L10.8157 14.0729C10.827 14.0807 10.8382 14.0885 10.8493 14.0964C10.8676 14.1094 10.8859 14.1223 10.9048 14.1342C11.0053 14.2011 11.107 14.2661 11.2105 14.3287C11.2199 14.3346 11.2292 14.3401 11.2384 14.3456C11.2436 14.3485 11.2487 14.3516 11.2537 14.3547C11.343 14.4079 11.4333 14.4606 11.524 14.5112C11.5458 14.5242 11.5681 14.5359 11.5903 14.5476L11.62 14.5633L11.6574 14.5837C11.7076 14.611 11.758 14.6386 11.8091 14.6649C11.8186 14.6698 11.8285 14.6742 11.8377 14.6785C11.9674 14.7447 12.0983 14.8085 12.232 14.8692C12.2504 14.8776 12.2693 14.8855 12.2881 14.8932L12.319 14.9064C12.4258 14.9534 12.5338 14.9992 12.6424 15.0425C12.6786 15.0567 12.7152 15.0705 12.7517 15.0842L12.7807 15.0952C12.8792 15.1329 12.9779 15.1676 13.0774 15.2023L13.1277 15.2191C13.1556 15.2286 13.1834 15.238 13.2116 15.2469C13.2488 15.2588 13.2858 15.2717 13.3228 15.2845C13.4271 15.3207 13.5319 15.3569 13.6409 15.3757C21.2446 16.6832 22.9999 10.6064 22.9999 10.6064C21.4175 12.9722 18.3531 14.1008 15.083 13.2198C14.9378 13.1801 14.7946 13.1368 14.6524 13.0903C14.6135 13.0782 14.5752 13.065 14.5367 13.0518L14.5229 13.047C14.4218 13.013 14.3213 12.977 14.2217 12.9393L14.2185 12.938C14.174 12.9212 14.1293 12.9042 14.0857 12.8867C13.9766 12.8434 13.8686 12.7981 13.7615 12.7511C13.7542 12.7478 13.7469 12.7447 13.7397 12.7416C13.7358 12.7399 13.732 12.7382 13.7281 12.7366C13.7099 12.7288 13.6918 12.7212 13.6741 12.7126C13.5399 12.652 13.4078 12.5883 13.2775 12.5214C13.2237 12.494 13.1706 12.4656 13.1178 12.4371L13.0786 12.4161L12.9638 12.3548C12.8791 12.3072 12.7949 12.2576 12.712 12.2075C12.7037 12.2025 12.6953 12.1976 12.6867 12.1928C12.675 12.186 12.6634 12.1793 12.6518 12.1721C12.5489 12.1097 12.4475 12.0453 12.347 11.979C12.3295 11.9674 12.3124 11.9554 12.2953 11.9432C12.2819 11.9338 12.2686 11.9244 12.2551 11.9152C12.1889 11.8707 12.1228 11.8254 12.0577 11.7796C11.9175 11.6794 11.7812 11.574 11.6468 11.4676L11.6129 11.4401C11.5932 11.4241 11.5736 11.4082 11.5543 11.3921C10.1229 10.2189 8.98828 8.61588 8.44883 6.79806C7.88349 4.91279 8.0054 2.79648 8.98486 1.0791L7.78177 2.84233Z" fill="#0077FF"/>
<path d="M1.46062 5.40194C-0.575724 8.44008 -0.322225 12.3927 1.23337 15.6208C1.26302 15.6829 1.29382 15.7441 1.32453 15.8052L1.34729 15.8505C1.35681 15.8693 1.3661 15.8883 1.3754 15.9072C1.38996 15.937 1.4046 15.9669 1.42006 15.996C1.43032 16.0164 1.4415 16.0365 1.4525 16.0563L1.4654 16.0796C1.48756 16.1225 1.51016 16.1637 1.533 16.2054L1.54651 16.23C1.59483 16.3186 1.64434 16.4065 1.69503 16.4944L1.71192 16.5235C1.73423 16.5621 1.75665 16.6008 1.77973 16.6393C1.8358 16.7334 1.89336 16.8263 1.95211 16.9191L1.96941 16.9473C1.98794 16.9775 2.00636 17.0075 2.02548 17.0368C2.10659 17.1625 2.1895 17.2875 2.27508 17.4108L2.27594 17.412C2.27783 17.4149 2.27989 17.418 2.28223 17.4206C2.28945 17.4313 2.2971 17.4417 2.30474 17.4523C2.31132 17.4612 2.31796 17.4703 2.32428 17.4795C2.39825 17.5853 2.4746 17.6899 2.55184 17.7933C2.58018 17.8311 2.60879 17.8689 2.63743 17.9067C2.70632 17.9964 2.77641 18.0856 2.84769 18.1748C2.87422 18.2082 2.90107 18.2416 2.92791 18.2744C3.02364 18.3914 3.12116 18.5079 3.22077 18.6217L3.22672 18.6279L3.2314 18.6331C3.2337 18.6356 3.23588 18.6379 3.23805 18.6409C3.33527 18.7511 3.43488 18.8589 3.53569 18.9666C3.567 19.0001 3.59892 19.0335 3.63112 19.0663C3.70926 19.148 3.78859 19.2285 3.86882 19.3084L3.89783 19.3373C3.92056 19.36 3.94323 19.3826 3.96604 19.4044C4.07311 19.5089 4.18136 19.6118 4.29171 19.712C4.29352 19.7138 4.29499 19.7153 4.29678 19.7164C4.30729 19.7261 4.31798 19.7354 4.3286 19.7447C4.3369 19.7519 4.34537 19.7593 4.35345 19.7665C4.45067 19.8539 4.54969 19.9405 4.64929 20.026C4.6721 20.0451 4.6951 20.0641 4.71811 20.0831L4.77186 20.1275C4.85328 20.195 4.93559 20.2619 5.01849 20.3276C5.06221 20.3621 5.10629 20.3969 5.15031 20.4315C5.24187 20.5015 5.33403 20.5702 5.42707 20.6377L5.44193 20.6488C5.47059 20.6703 5.49896 20.6914 5.52787 20.712L5.5556 20.7325C5.63962 20.7925 5.72553 20.8504 5.81129 20.9082L5.82432 20.9169C5.83935 20.9273 5.85432 20.9377 5.8693 20.9483C5.89294 20.9648 5.91676 20.9815 5.94063 20.9974C6.07901 21.0885 6.21949 21.1782 6.36144 21.2649C6.38266 21.2775 6.40407 21.29 6.42552 21.3025L6.47775 21.333C6.58213 21.3955 6.68711 21.4569 6.79357 21.5168C6.83429 21.5397 6.87574 21.5615 6.91712 21.5833L6.96833 21.6104L7.02462 21.6411C7.08088 21.6719 7.13713 21.7027 7.19439 21.7324C7.20208 21.7362 7.20989 21.74 7.21769 21.744C7.22742 21.7488 7.23714 21.7536 7.24658 21.7583L7.27916 21.7745C7.29913 21.7844 7.31915 21.7944 7.33903 21.8048C7.45743 21.8636 7.57673 21.9212 7.69723 21.9769L7.7423 21.9978L7.77297 22.0122C7.91105 22.0747 8.05032 22.1348 8.1908 22.1924C8.2245 22.2066 8.25849 22.2203 8.2925 22.2339C8.42252 22.2859 8.55435 22.3373 8.68676 22.3856L8.69504 22.3885C8.70883 22.3936 8.72235 22.3983 8.73627 22.4035C8.88152 22.4561 9.02826 22.505 9.17587 22.5527C9.19277 22.5578 9.20975 22.5631 9.22676 22.5684C9.24516 22.5743 9.2636 22.58 9.28203 22.5855C9.32043 22.5976 9.35871 22.6101 9.397 22.6228C9.50864 22.6596 9.62052 22.6965 9.7359 22.7186C19.5842 24.5828 22.4448 16.5754 22.4448 16.5754C20.0423 19.8245 15.7775 20.6815 11.7369 19.7273C11.6161 19.699 11.498 19.6622 11.3801 19.6254C11.3487 19.6155 11.3173 19.6057 11.2859 19.5962C11.2481 19.5844 11.2108 19.5726 11.1735 19.5608C11.0276 19.5144 10.883 19.4655 10.7393 19.4141L10.6797 19.3918C10.5508 19.3448 10.4234 19.2952 10.2967 19.2444L10.1894 19.2005C10.0503 19.1435 9.91233 19.0841 9.77596 19.0222C9.7612 19.0157 9.74683 19.009 9.73235 19.0023C9.71942 18.9962 9.70648 18.9903 9.69335 18.9844C9.57617 18.9293 9.46015 18.8736 9.34474 18.816L9.3051 18.7963C9.28484 18.7864 9.2645 18.7763 9.24393 18.7659C9.17521 18.7311 9.10704 18.6945 9.03912 18.658L8.97422 18.6234C8.95264 18.6116 8.93095 18.6 8.90925 18.5885C8.87073 18.5679 8.83211 18.5474 8.79416 18.5254C8.68494 18.4648 8.5777 18.4017 8.47093 18.3373L8.42905 18.3132C8.40662 18.3004 8.38412 18.2875 8.36173 18.2741C8.21978 18.1874 8.07955 18.0976 7.94077 18.0066C7.9161 17.9903 7.89184 17.9732 7.86758 17.9562L7.82717 17.928C7.72651 17.8605 7.62634 17.7918 7.52764 17.7213C7.5109 17.7095 7.49447 17.6973 7.4781 17.6851C7.46247 17.6735 7.44689 17.662 7.43114 17.6507C7.33585 17.5808 7.24155 17.5101 7.14798 17.4383C7.10547 17.4055 7.06369 17.3725 7.0224 17.3399C6.93665 17.2716 6.85138 17.2029 6.76685 17.1324C6.72868 17.1008 6.6905 17.0692 6.65292 17.0377C6.54556 16.9461 6.43939 16.8538 6.33471 16.7591C6.32866 16.7536 6.32234 16.7482 6.3159 16.7427L6.29981 16.7287C6.18648 16.6253 6.07525 16.5194 5.9652 16.413C5.93329 16.3814 5.90227 16.3505 5.87096 16.3188C5.78954 16.2383 5.70932 16.1573 5.63058 16.0743L5.5989 16.0416C5.5779 16.0199 5.55699 15.9983 5.53634 15.9764C5.43614 15.87 5.33772 15.7622 5.24138 15.6527C5.239 15.6499 5.23654 15.6472 5.23408 15.6447C5.23237 15.6427 5.23064 15.6409 5.22894 15.639L5.22679 15.6366C5.12478 15.5208 5.02518 15.4026 4.92765 15.2831L4.84921 15.1865C4.77645 15.0954 4.70428 15.0032 4.63389 14.9103C4.6075 14.8768 4.58112 14.8426 4.55498 14.8081C4.4702 14.694 4.38737 14.5801 4.30626 14.4645C2.06292 11.2882 1.257 6.90717 3.05001 3.30933L1.46062 5.40194Z" fill="#0077FF"/>
</svg>
