<svg width="75" height="80" viewBox="0 0 75 80" fill="none" xmlns="http://www.w3.org/2000/svg">
<path d="M34.84 0.112473C34.4136 0.157356 33.4035 0.280807 32.5955 0.381813C20.1158 1.90811 9.12873 9.84259 3.61836 21.301C1.72172 25.2626 0.666782 28.9774 0.0944223 33.8144C-0.107587 35.4753 0.0383086 41.2663 0.307655 42.9048C1.0708 47.4051 2.09207 50.6485 3.86526 54.1837C5.59357 57.6403 8.64615 61.8712 11.0815 64.1831C13.1914 66.192 15.7502 68.1896 17.557 69.2558C17.9835 69.5139 18.5222 69.8394 18.7354 69.9853C20.3851 71.1076 25.9404 73.3409 28.2186 73.8122C28.4655 73.8683 29.2736 74.0367 30.0143 74.1938C32.7526 74.7549 34.1667 74.8896 37.3203 74.8784C40.2606 74.8672 41.9553 74.7325 44.1549 74.3173C45.6924 74.0142 48.2624 73.3521 49.3735 72.9593C49.9571 72.7461 50.6753 72.488 50.9671 72.3869C51.5619 72.1849 51.6068 72.1064 51.4834 71.2422C51.4273 70.9055 51.3263 70.1087 51.2477 69.4803C51.1579 68.8406 51.0569 68.2906 51.0232 68.2458C50.9783 68.2121 50.8325 68.2345 50.6866 68.3019C49.9346 68.6834 46.8933 69.772 47.0279 69.6149C47.0504 69.5925 47.8135 68.8181 48.7114 67.9091C49.6204 66.9888 50.4397 66.0798 50.5519 65.8665C50.7202 65.5186 50.7314 65.3727 50.608 64.4076C50.5407 63.8128 50.406 62.8925 50.3162 62.365C50.2264 61.8263 50.1591 61.1754 50.1479 60.9061C50.1479 60.6367 50.103 60.3113 50.0581 60.199C49.9683 59.9521 50.0356 59.8736 48.9246 61.4335C47.1626 63.8801 44.3345 66.7195 41.7981 68.5824C41.2482 68.9865 40.5524 69.5027 40.2606 69.7272C39.3965 70.3669 39.3853 70.3444 39.374 68.6273C39.3291 62.1855 39.3179 56.619 39.3516 55.5977L39.3965 54.3744L40.4851 54.453C42.8306 54.6213 45.5016 55.1713 48.0829 56.0466C49.5531 56.5404 49.6204 56.5404 49.5418 56.0017C49.4408 55.2723 49.25 53.8133 49.149 53.0726C49.0929 52.6798 49.0144 52.3207 48.9583 52.2646C48.9134 52.2197 48.6665 52.1299 48.4196 52.0626C48.1727 52.0064 47.4881 51.8269 46.9045 51.6698C44.7048 51.0974 42.5837 50.727 40.934 50.6373C40.2157 50.5924 39.5536 50.5138 39.475 50.4689C39.3628 50.3904 39.3291 49.3242 39.3291 44.9922C39.3291 42.0294 39.3516 39.5829 39.3853 39.5604C39.4863 39.4594 39.8229 39.4594 48.24 39.4706L56.5897 39.4819L56.5112 40.6827C56.3989 42.5457 55.9612 45.3065 55.4787 47.2704C55.3215 47.8765 55.2318 48.4713 55.2654 48.5835C55.3103 48.6957 55.5011 48.909 55.6919 49.0436C55.8939 49.1783 56.5673 49.7394 57.207 50.2781C57.8354 50.8168 58.4078 51.2657 58.4639 51.2657C58.6323 51.2657 58.7557 50.9291 59.1822 49.2456C59.575 47.6969 59.7209 47.0235 59.9902 45.5421C60.1361 44.7565 60.1922 44.3638 60.484 42.0631C60.5513 41.603 60.5962 40.9857 60.5962 40.7051C60.5962 40.4133 60.6299 40.0205 60.6636 39.8298L60.7421 39.4819L65.8036 39.5043L70.8651 39.538L70.8314 40.1552C70.764 41.4795 70.2141 44.6668 69.8101 46.1594C68.9347 49.3242 67.7676 52.0401 66.0393 54.9131C65.5679 55.6987 65.1751 56.4394 65.1639 56.5741C65.1527 56.72 65.3098 56.922 65.5791 57.1465C65.826 57.3372 66.376 57.8086 66.8136 58.1902C67.2738 58.6054 67.7002 58.8972 67.8461 58.8972C68.0369 58.8972 68.2277 58.6728 68.6878 57.9321C69.0245 57.4046 69.4173 56.7873 69.5632 56.5629C70.0121 55.8895 71.6282 52.6349 72.0322 51.6024C73.3228 48.3254 74.0299 45.6207 74.5349 42.0631C74.7369 40.6154 74.7369 34.2969 74.5349 32.9165C73.9962 29.2579 73.0984 25.8911 71.8527 22.9171C71.3476 21.705 70.0907 19.236 69.5183 18.3158C67.9359 15.8243 67.4084 15.1061 65.6914 13.0523C62.6612 9.44979 58.5986 6.26254 54.2105 4.0741C49.2837 1.60509 44.5926 0.393036 38.8241 0.0900269C36.5122 -0.0334244 35.9848 -0.0334244 34.84 0.112473ZM35.3451 12.7268V20.6389L34.537 20.5715C31.2263 20.3022 28.185 19.5952 24.9079 18.3045C23.0337 17.5751 23.101 17.6761 23.7407 16.6211C26.1985 12.536 29.296 9.10189 33.0444 6.30743C34.1218 5.51061 35.1543 4.82602 35.3226 4.80357C35.3338 4.80357 35.3451 8.37241 35.3451 12.7268ZM40.1484 5.21882C41.5849 6.16153 43.2571 7.48581 44.9742 9.057C46.9045 10.819 49.8224 14.5337 51.1691 16.9466C51.5732 17.6873 51.6629 17.5751 50.2152 18.1586C46.8147 19.5166 43.5601 20.3134 40.2718 20.5715L39.4189 20.6389L39.3516 19.3146C39.3067 18.5851 39.2955 16.5762 39.3179 14.8479C39.3404 13.1196 39.3628 10.1568 39.374 8.24896C39.374 6.35232 39.4077 4.80357 39.4414 4.80357C39.475 4.80357 39.7893 4.99436 40.1484 5.21882ZM26.12 6.9359C23.7969 9.31512 21.4625 12.3565 20.1607 14.702C19.925 15.1173 19.6893 15.4876 19.622 15.5325C19.4537 15.6335 17.0408 13.9389 15.6491 12.7381C15.1105 12.2667 15.088 12.3116 16.648 11.0995C19.7342 8.72031 22.899 6.98079 26.3108 5.8024C26.9953 5.56673 27.5677 5.37594 27.6014 5.37594C27.635 5.36472 26.9729 6.07175 26.12 6.9359ZM48.4757 5.81362C49.0144 5.99319 51.2814 6.92467 51.9211 7.23891C52.976 7.74393 55.1869 9.04578 56.3316 9.83137C57.6334 10.7292 59.474 12.1769 59.474 12.3116C59.474 12.6146 55.3328 15.6672 55.1083 15.5213C55.0522 15.4876 54.839 15.1734 54.6482 14.8143C53.2566 12.3565 50.9335 9.32634 48.5991 6.94712C47.7911 6.11664 47.1289 5.43205 47.1289 5.42083C47.1289 5.38716 47.7462 5.56673 48.4757 5.81362ZM12.9108 15.4203C13.4719 16.0263 14.7064 16.969 17.1193 18.6412L17.8151 19.1238L17.3774 20.2349C15.795 24.2975 14.9309 27.5521 14.4146 31.5137C14.3249 32.2207 14.2126 33.2532 14.179 33.8144C14.1453 34.3643 14.1004 34.9928 14.0667 35.1835L14.0106 35.5539H8.90428H3.79793L3.86526 34.7907C4.47129 28.0459 6.80562 22.1652 11.1264 16.565C12.3272 15.0051 12.4507 14.9265 12.9108 15.4203ZM62.953 15.7682C63.2336 16.1161 63.66 16.666 63.9182 16.969C66.2637 19.9094 68.4634 24.1853 69.5632 27.9785C70.2141 30.2568 70.7416 33.1186 70.8314 34.8805L70.8651 35.4978L65.7924 35.5315L60.7085 35.5539L60.6636 35.307C60.6299 35.1611 60.585 34.6449 60.5513 34.1511C60.4167 32.03 60.2708 30.8852 59.8443 28.708C59.3168 26.0033 58.4751 23.0967 57.5212 20.695C57.1733 19.8308 56.9264 19.1014 56.9825 19.0677C57.0274 19.034 57.5885 18.6524 58.2395 18.2148C59.3954 17.4516 60.7646 16.3967 61.6848 15.555C61.9542 15.3193 62.2235 15.1285 62.3021 15.1285C62.3807 15.1285 62.6724 15.4203 62.953 15.7682ZM22.6072 21.5479C22.9215 21.705 23.4938 21.9407 23.8979 22.0754C24.3019 22.2213 24.7283 22.3784 24.8518 22.4345C25.3007 22.6253 26.8046 23.0742 28.2186 23.4333C30.1489 23.9159 32.3261 24.2863 33.9422 24.3873C34.5034 24.4322 35.042 24.4883 35.1543 24.5107C35.3338 24.5668 35.3451 24.926 35.3451 30.066V35.5539H26.7484H18.1518L18.2192 34.2296C18.3987 31.177 19.1731 27.3501 20.3178 24.0394C21.1932 21.4694 21.2269 21.3683 21.3391 21.2225C21.4625 21.0653 21.8329 21.1551 22.6072 21.5479ZM53.3688 21.2112C53.4137 21.2786 53.6269 21.8285 53.8289 22.4121C54.0422 23.0069 54.3676 23.9047 54.536 24.4097C54.8502 25.2851 55.2542 26.643 55.4338 27.4735C56.0061 29.965 56.3877 32.434 56.5112 34.3418L56.5897 35.5539H48.0043H39.4077L39.3516 35.2397C39.273 34.8244 39.3404 24.7239 39.4301 24.5781C39.4638 24.5219 40.0137 24.4434 40.6422 24.3985C44.312 24.1628 49.2613 22.8834 52.6842 21.2898C53.2229 21.0429 53.2678 21.0429 53.3688 21.2112ZM35.3451 44.981V50.4577L34.8176 50.525C34.5146 50.5587 33.8749 50.6148 33.3811 50.6485C32.0344 50.7495 29.2287 51.2545 27.7922 51.6585C25.5813 52.2758 24.3243 52.7023 22.8317 53.3532C22.2145 53.6225 21.6309 53.847 21.5411 53.847C21.2942 53.847 20.531 51.8157 19.521 48.5162C19.016 46.844 18.3538 42.8599 18.2192 40.75L18.1406 39.4819L26.6025 39.4594C31.26 39.437 35.1318 39.4482 35.2104 39.4706C35.3114 39.4931 35.3451 40.6939 35.3451 44.981ZM14.0667 39.841C14.1004 40.043 14.1453 40.6602 14.179 41.2214C14.3136 43.3762 14.8299 46.5859 15.391 48.6733C15.5145 49.1446 15.6828 49.7731 15.7614 50.0874C16.0644 51.2321 16.6367 52.893 17.2316 54.3744C17.5682 55.2049 17.8264 55.912 17.8151 55.9232C17.7927 55.9344 17.2316 56.316 16.547 56.7649C15.3237 57.5617 14.7513 57.9994 13.2026 59.2788L12.3945 59.9297L12.0242 59.5032C8.30947 55.261 5.58234 49.7282 4.48252 44.2515C4.11216 42.3661 3.76426 39.6726 3.88771 39.5492C3.9326 39.5155 6.22204 39.4819 8.98284 39.4819H14.0106L14.0667 39.841ZM35.3451 62.264C35.3451 68.8518 35.3226 70.12 35.1879 70.12C34.7727 70.12 31.2263 67.3367 29.4082 65.586C27.3769 63.622 24.863 60.3898 23.5724 58.0892L23.2133 57.4495L23.4714 57.2811C23.7632 57.0903 25.7159 56.3384 27.1412 55.8671C29.4531 55.1039 32.674 54.4979 34.7615 54.4306L35.3451 54.4081V62.264ZM19.9475 59.9858C20.2168 60.4459 21.889 62.9935 22.4052 63.723C23.4041 65.1483 25.9965 68.0662 26.9168 68.8069C27.13 68.9752 27.3769 69.2221 27.4667 69.3568C27.635 69.5813 27.6238 69.5925 27.2984 69.5251C26.8607 69.4354 23.9764 68.3019 22.8878 67.7856C20.7892 66.798 18.2192 65.1595 16.3113 63.6108C15.3125 62.7915 15.2451 62.7242 15.3461 62.5334C15.5706 62.163 19.2404 59.4696 19.5547 59.4583C19.5996 59.4583 19.7791 59.694 19.9475 59.9858Z" fill="#029CFB"/>
<path d="M51.3149 49.3691C51.3822 50.1098 51.5618 51.58 51.7862 53.2297C51.876 53.9031 52.0331 55.0927 52.1229 55.867C52.3698 57.8422 52.6167 59.7726 52.7963 61.0856C52.886 61.7029 52.9871 62.5558 53.0207 62.9935C53.0544 63.42 53.133 64.0596 53.1891 64.3963C53.2452 64.733 53.3686 65.6982 53.4696 66.5287C53.5706 67.3591 53.7165 68.5263 53.8063 69.1099C53.8849 69.6935 54.0195 70.7708 54.0981 71.4891C54.1654 72.2074 54.2777 72.8695 54.3226 72.9481C54.4011 73.0603 54.5246 73.0378 54.8949 72.8246C55.5122 72.4767 58.4413 70.8719 59.2269 70.4454C59.5636 70.2658 59.8666 70.1424 59.9227 70.176C60.0013 70.2209 61.045 72.0502 61.6959 73.2623C61.8418 73.5429 62.2458 74.2611 62.5825 74.8784C63.211 75.9894 63.6711 76.8311 64.5577 78.4697C64.8158 78.9522 65.0964 79.3787 65.175 79.4011C65.3096 79.4573 69.361 77.3137 69.6641 77.0219C69.8548 76.8536 69.8212 76.7862 67.5654 72.7124C64.7373 67.6173 64.7036 67.5387 64.8719 67.3704C65.0066 67.2357 66.387 66.4613 69.0692 65.0136C70.2364 64.3851 70.2364 64.3739 69.7314 63.9138C69.4845 63.7005 69.0131 63.3077 68.6765 63.0384C68.3398 62.769 67.3522 61.9722 66.488 61.254C62.7621 58.1677 60.7532 56.5067 59.1483 55.1937C58.2056 54.4193 57.0385 53.4654 56.5447 53.0614C56.0621 52.6573 54.8051 51.6361 53.7614 50.7831C52.7065 49.9302 51.8199 49.1895 51.7862 49.1334C51.7526 49.0661 51.6179 48.9651 51.4832 48.8977C51.2588 48.7743 51.2588 48.7967 51.3149 49.3691Z" fill="#029CFB"/>
</svg>
