<svg width="90" height="30" viewBox="0 0 90 30" fill="none" xmlns="http://www.w3.org/2000/svg">
<path d="M0.0493731 0.0564175C0.0211599 0.0775757 0 6.77821 0 14.9389V29.772L8.62619 29.7579L17.2453 29.7367V26.9507V24.1646L12.3644 24.1434L7.4765 24.1293V12.0682V0.00704384H3.78762C1.75627 0.00704384 0.070533 0.028204 0.0493731 0.0564175Z" fill="white"/>
<path d="M20.7862 0.0564166C20.758 0.0775765 20.7368 6.77821 20.7368 14.9389V29.772L24.461 29.7579L28.178 29.7367V14.8895V0.04231L24.5033 0.0211501C22.486 0.0140968 20.8073 0.0282034 20.7862 0.0564166Z" fill="#029CFB"/>
<path d="M29.1304 6.26332V12.5267L29.9486 14.6779C30.9078 17.1959 31.7683 19.4883 32.4595 21.308C34.2652 26.0972 35.5771 29.5463 35.6335 29.645C35.6899 29.7649 35.9086 29.772 38.7511 29.772H41.8052L42.7291 27.3174C43.6672 24.8276 45.36 20.3276 46.9541 16.1238C47.4337 14.8401 47.9768 13.4013 48.1461 12.9146C48.3224 12.4279 48.4917 12.0047 48.534 11.9624C48.5693 11.9271 48.5975 15.2563 48.5975 20.8354V29.772H52.3357H56.074V14.8895V0.00704575H51.6022H47.1374L45.8255 3.2304C45.1061 5.00784 44.0199 7.68104 43.4133 9.17634C42.8067 10.6716 42.1296 12.3503 41.8968 12.9146C40.324 16.7798 39.541 18.7195 39.2095 19.5658C38.9133 20.3205 38.8146 20.511 38.7511 20.4475C38.7017 20.3981 38.4266 19.7704 38.1374 19.051C37.8483 18.3315 37.2417 16.8433 36.7903 15.7359C36.3318 14.6285 35.4995 12.5972 34.9352 11.2218C34.371 9.8464 33.4893 7.68809 32.9744 6.42555C32.4525 5.16301 31.6555 3.20924 31.197 2.08777L30.3576 0.0423126L29.744 0.0211525L29.1304 -7.62939e-06V6.26332Z" fill="white"/>
<path d="M70.1802 0.148109C70.1097 0.282122 69.8134 1.07209 67.9584 6.14342C65.5674 12.6818 65.0807 14.0149 64.3824 15.9122C63.9522 17.076 63.529 18.2328 63.4443 18.4867C63.3526 18.7406 62.4075 21.3362 61.3354 24.2633C60.2633 27.1905 59.3887 29.6239 59.3887 29.6732C59.3887 29.7579 60.0446 29.772 63.2609 29.772H67.1332L67.4576 28.8057C67.634 28.2696 68.036 27.0988 68.3393 26.2101L68.8965 24.5878L74.6097 24.5666L80.3299 24.5525L80.4639 24.9193C80.5345 25.1238 80.9436 26.3017 81.3668 27.529L82.1356 29.772H86.0643C88.2296 29.772 90 29.7579 90 29.7438C90 29.7155 88.7868 26.3652 87.6019 23.1419C85.507 17.4428 82.2978 8.66144 79.8785 2.01723L79.1591 0.0423107L74.7084 0.0211506C70.286 0.00704384 70.2578 0.00704384 70.1802 0.148109ZM75.2233 9.45847C75.7241 10.9679 76.9091 14.4522 77.826 17.1113C78.1222 17.9647 78.362 18.7194 78.362 18.7829C78.362 18.9028 78.1363 18.9099 74.6238 18.9099C72.5713 18.9099 70.8856 18.8958 70.8856 18.8746C70.8856 18.8535 71.2946 17.6262 71.7954 16.145C74.8142 7.20846 74.5885 7.83621 74.6873 7.94906C74.7155 7.98433 74.9553 8.66144 75.2233 9.45847Z" fill="white"/>
</svg>
