<svg width="256" height="27" viewBox="0 0 256 27" fill="none" xmlns="http://www.w3.org/2000/svg">
<path d="M27.88 0.872V26H22.84V9.656L16.108 26H12.292L5.524 9.656V26H0.484V0.872H6.208L14.2 19.556L22.192 0.872H27.88ZM37.9029 4.94V11.24H46.3629V15.236H37.9029V21.896H47.4429V26H32.8629V0.835998H47.4429V4.94H37.9029ZM73.5151 26H68.4751L57.0631 8.756V26H52.0231V0.835998H57.0631L68.4751 18.116V0.835998H73.5151V26ZM83.4637 0.872V16.424C83.4637 18.128 83.9077 19.436 84.7957 20.348C85.6837 21.236 86.9317 21.68 88.5397 21.68C90.1717 21.68 91.4317 21.236 92.3197 20.348C93.2077 19.436 93.6517 18.128 93.6517 16.424V0.872H98.7277V16.388C98.7277 18.524 98.2597 20.336 97.3237 21.824C96.4117 23.288 95.1757 24.392 93.6157 25.136C92.0797 25.88 90.3637 26.252 88.4677 26.252C86.5957 26.252 84.8917 25.88 83.3557 25.136C81.8437 24.392 80.6437 23.288 79.7557 21.824C78.8677 20.336 78.4237 18.524 78.4237 16.388V0.872H83.4637ZM123.839 26.252C121.487 26.252 119.327 25.7 117.359 24.596C115.391 23.492 113.831 21.968 112.679 20.024C111.527 18.056 110.951 15.836 110.951 13.364C110.951 10.916 111.527 8.72 112.679 6.776C113.831 4.808 115.391 3.272 117.359 2.168C119.327 1.064 121.487 0.512 123.839 0.512C126.215 0.512 128.375 1.064 130.319 2.168C132.287 3.272 133.835 4.808 134.963 6.776C136.115 8.72 136.691 10.916 136.691 13.364C136.691 15.836 136.115 18.056 134.963 20.024C133.835 21.968 132.287 23.492 130.319 24.596C128.351 25.7 126.191 26.252 123.839 26.252ZM123.839 21.752C125.351 21.752 126.683 21.416 127.835 20.744C128.987 20.048 129.887 19.064 130.535 17.792C131.183 16.52 131.507 15.044 131.507 13.364C131.507 11.684 131.183 10.22 130.535 8.972C129.887 7.7 128.987 6.728 127.835 6.056C126.683 5.384 125.351 5.048 123.839 5.048C122.327 5.048 120.983 5.384 119.807 6.056C118.655 6.728 117.755 7.7 117.107 8.972C116.459 10.22 116.135 11.684 116.135 13.364C116.135 15.044 116.459 16.52 117.107 17.792C117.755 19.064 118.655 20.048 119.807 20.744C120.983 21.416 122.327 21.752 123.839 21.752ZM161.933 26H156.893L145.481 8.756V26H140.441V0.835998H145.481L156.893 18.116V0.835998H161.933V26ZM182.25 11.024V15.272H166.986V11.024H182.25ZM192.942 22.004H201.222V26H187.902V0.872H192.942V22.004ZM209.465 0.872V26H204.425V0.872H209.465ZM235.937 26H230.897L219.485 8.756V26H214.445V0.835998H219.485L230.897 18.116V0.835998H235.937V26ZM245.958 4.94V11.24H254.418V15.236H245.958V21.896H255.498V26H240.918V0.835998H255.498V4.94H245.958Z" fill="white"/>
</svg>
