<svg width="84" height="84" viewBox="0 0 84 84" fill="none" xmlns="http://www.w3.org/2000/svg">
<g clip-path="url(#clip0_63_21)">
<path d="M0.164062 72.1875C0.164062 52.1682 0.164062 32.1488 0.209238 12.0212C0.364693 11.6663 0.50147 11.4278 0.581261 11.1717C1.69938 7.58175 5.68463 4.98631 9.35041 4.99563C31.3297 5.05151 53.3093 5.02479 75.2888 5.02228C77.6184 5.02201 79.575 5.96473 81.2951 7.4359C82.8422 8.75916 83.6451 10.5414 84.1641 12.4688C84.1641 32.2147 84.1641 51.9606 84.1548 71.8419C83.9503 72.5414 83.7742 73.1131 83.5567 73.6686C82.3252 76.8124 78.8102 79.3051 75.5854 79.3056C53.337 79.309 31.0887 79.321 8.84041 79.2895C6.06414 79.2855 3.83357 77.9856 2.06819 75.8563C1.16446 74.7662 0.707023 73.4578 0.164062 72.1875ZM81.3123 68.4831C81.3124 55.2219 81.3128 41.9607 81.3119 28.6994C81.3118 27.5675 81.2192 27.4754 80.1138 27.4644C79.7584 27.4609 79.4029 27.4633 79.0475 27.4633C54.1108 27.4628 29.1742 27.4624 4.23751 27.4618C3.02172 27.4618 3.01501 27.4663 3.01496 28.7077C3.01453 41.2854 3.01035 53.8631 3.02101 66.4408C3.02214 67.7747 2.98659 69.1052 3.15134 70.4446C3.39777 72.4482 4.33225 73.9702 5.92894 75.1478C7.29955 76.1587 8.89704 76.3575 10.5094 76.3769C14.1728 76.421 17.8371 76.3913 21.5011 76.3913C38.8638 76.3916 56.2265 76.396 73.5891 76.3854C75.2349 76.3844 76.8544 76.1911 78.2819 75.2402C80.6502 73.6624 81.3258 71.312 81.3123 68.4831ZM3.01494 16.8173C3.01483 18.8948 3.01434 20.9723 3.01474 23.0498C3.015 24.3836 3.01559 24.3844 4.38947 24.3844C29.4563 24.3847 54.5231 24.3848 79.5898 24.3848C79.8632 24.3848 80.1366 24.3792 80.4099 24.382C81.0089 24.3882 81.3314 24.129 81.3133 23.4953C81.2223 20.3038 81.4103 17.1125 81.1829 13.9168C80.9606 10.7917 77.9988 8.07821 74.8174 8.08323C53.031 8.11761 31.2444 8.09843 9.45792 8.10939C6.90677 8.11067 5.05365 9.34369 3.84061 11.5514C2.96381 13.1472 3.01477 14.9081 3.01494 16.8173Z" fill="#029CFB"/>
<path d="M42.5875 53.704C41.9394 56.8051 41.3082 59.8386 40.6736 62.8714C40.6015 63.216 40.5437 63.5691 40.4216 63.8968C40.147 64.6341 39.4649 64.9851 38.64 64.8545C37.9388 64.7435 37.5144 64.2124 37.5156 63.3825C37.5178 61.9785 37.9832 60.6523 38.2629 59.2982C39.7973 51.8684 41.3711 44.4467 42.9247 37.0208C43.1863 35.7701 43.6652 35.3229 44.7552 35.3775C45.4795 35.4137 45.956 35.8887 45.9951 36.6172C46.0709 38.0296 45.6133 39.3585 45.3326 40.7119C44.4385 45.0232 43.5153 49.3285 42.5875 53.704Z" fill="#029CFB"/>
<path d="M34.6399 43.0827C33.197 44.7035 31.477 45.9213 29.9061 47.3072C29.0289 48.0812 28.1229 48.8224 27.235 49.5844C27.0932 49.7061 26.9392 49.8368 26.9632 50.151C28.4408 51.4157 29.9641 52.7251 31.4938 54.027C32.3642 54.7678 33.2487 55.492 34.1199 56.2319C34.9169 56.9087 35.0638 57.9143 34.4832 58.6311C33.9617 59.2749 32.8972 59.3298 32.1317 58.6943C30.6021 57.4247 29.0952 56.1278 27.5829 54.8376C26.2571 53.7066 24.9505 52.5527 23.6088 51.4409C22.8137 50.7821 22.3763 49.6329 23.4334 48.7274C25.1079 47.2932 26.778 45.854 28.452 44.4191C29.4235 43.5864 30.3953 42.7538 31.3745 41.9301C31.7074 41.6501 32.0509 41.379 32.4115 41.1363C33.0413 40.7124 33.6927 40.6706 34.2953 41.1793C34.8936 41.6844 34.9938 42.3187 34.6399 43.0827Z" fill="#029CFB"/>
<path d="M55.0131 52.2194C55.8324 51.501 56.6031 50.8153 57.4455 50.0658C57.021 49.2915 56.2134 48.8922 55.5914 48.327C53.7595 46.6621 51.7586 45.1889 49.9933 43.4462C49.503 42.9622 49.3271 42.3861 49.6092 41.7317C49.8753 41.1146 50.3999 40.8069 51.0378 40.8205C51.6939 40.8345 52.2033 41.2719 52.677 41.6724C55.3149 43.9027 57.9256 46.1652 60.5658 48.3927C61.8347 49.4633 61.8177 50.5188 60.5082 51.6014C57.7619 53.872 55.0824 56.2235 52.3797 58.5465C51.5104 59.2937 50.4033 59.3376 49.8369 58.6297C49.212 57.8487 49.4806 56.825 50.4046 56.0772C51.9466 54.8294 53.4468 53.5299 55.0131 52.2194Z" fill="#029CFB"/>
<path d="M28.2429 15.1566C28.6086 17.9892 27.5302 19.8932 25.2109 20.6233C23.349 21.2094 21.2968 20.4857 20.2281 19.0923C19.1204 17.6481 18.972 15.3435 19.98 13.8605C21.0248 12.3233 22.53 11.5733 24.4009 11.7744C26.2866 11.977 27.7278 13.2752 28.2429 15.1566ZM23.4085 14.9782C22.5795 15.4681 22.2736 16.1681 22.5893 16.8527C22.8834 17.4904 23.6554 17.8251 24.301 17.5948C24.995 17.3471 25.3704 16.6686 25.1975 15.9741C25.0204 15.2624 24.3332 14.8361 23.4085 14.9782Z" fill="#029CFB"/>
<path d="M35.4203 12.2233C37.8834 11.1974 40.4698 12.318 41.4103 14.2781C42.6733 16.9101 41.2325 20.1453 38.3802 20.7545C35.6884 21.3294 32.9036 19.6638 32.8136 16.3781C32.7641 14.5692 33.5883 13.0557 35.4203 12.2233ZM36.9897 17.6612C37.6593 17.7783 38.2102 17.6325 38.5738 16.9977C38.8859 16.4529 38.7785 15.9668 38.4229 15.4996C38.0321 14.9862 37.5122 14.8274 36.9103 15.0207C36.3715 15.1938 36.0782 15.6077 35.9971 16.1587C35.8904 16.8833 36.2574 17.3394 36.9897 17.6612Z" fill="#029CFB"/>
<path d="M14.6244 14.6698C15.4353 17.3349 14.2126 19.8441 11.6629 20.5787C9.89715 21.0874 8.2222 20.7289 6.9762 19.2853C5.75742 17.8732 5.47684 16.2261 6.20872 14.4836C6.9434 12.7345 8.28938 11.8088 10.1954 11.7518C12.3142 11.6884 13.7778 12.6595 14.6244 14.6698ZM8.93162 16.2983C9.22784 17.2453 9.7705 17.7208 10.5153 17.646C11.21 17.5762 11.562 17.0858 11.7241 16.4824C11.9027 15.8178 11.3487 15.0126 10.6791 14.8601C9.8993 14.6825 9.23121 15.1861 8.93162 16.2983Z" fill="#029CFB"/>
</g>
<defs>
<clipPath id="clip0_63_21">
<rect width="84" height="84" fill="white"/>
</clipPath>
</defs>
</svg>
