<svg width="82" height="82" viewBox="0 0 82 82" fill="none" xmlns="http://www.w3.org/2000/svg">
<path d="M66.625 3.41663H15.375C6.89825 3.41663 0 10.3149 0 18.7916V63.2083C0 71.685 6.89825 78.5833 15.375 78.5833H66.625C75.1018 78.5833 82 71.685 82 63.2083V18.7916C82 10.3149 75.1018 3.41663 66.625 3.41663ZM15.375 6.83329H66.625C73.2192 6.83329 78.5833 12.1975 78.5833 18.7916V27.3333H3.41667V18.7916C3.41667 12.1975 8.78083 6.83329 15.375 6.83329ZM66.625 75.1666H15.375C8.78083 75.1666 3.41667 69.8025 3.41667 63.2083V30.75H78.5833V63.2083C78.5833 69.8025 73.2192 75.1666 66.625 75.1666ZM10.25 17.0833C10.25 15.1973 11.7807 13.6666 13.6667 13.6666C15.5527 13.6666 17.0833 15.1973 17.0833 17.0833C17.0833 18.9693 15.5527 20.5 13.6667 20.5C11.7807 20.5 10.25 18.9693 10.25 17.0833ZM20.5 17.0833C20.5 15.1973 22.0307 13.6666 23.9167 13.6666C25.8027 13.6666 27.3333 15.1973 27.3333 17.0833C27.3333 18.9693 25.8027 20.5 23.9167 20.5C22.0307 20.5 20.5 18.9693 20.5 17.0833ZM30.75 17.0833C30.75 15.1973 32.2807 13.6666 34.1667 13.6666C36.0527 13.6666 37.5833 15.1973 37.5833 17.0833C37.5833 18.9693 36.0527 20.5 34.1667 20.5C32.2807 20.5 30.75 18.9693 30.75 17.0833ZM58.0833 42.7083V66.625C58.0833 67.568 57.318 68.3333 56.375 68.3333C55.432 68.3333 54.6667 67.568 54.6667 66.625V42.7083C54.6667 41.7653 55.432 41 56.375 41C57.318 41 58.0833 41.7653 58.0833 42.7083ZM44.4167 42.7083V58.0833C44.4167 63.7345 39.8178 68.3333 34.1667 68.3333C28.5155 68.3333 23.9167 63.7345 23.9167 58.0833V42.7083C23.9167 41.7653 24.682 41 25.625 41C26.568 41 27.3333 41.7653 27.3333 42.7083V58.0833C27.3333 61.8519 30.3981 64.9166 34.1667 64.9166C37.9352 64.9166 41 61.8519 41 58.0833V42.7083C41 41.7653 41.7653 41 42.7083 41C43.6513 41 44.4167 41.7653 44.4167 42.7083Z" fill="#029CFB"/>
</svg>
