<svg width="270" height="36" viewBox="0 0 270 36" fill="none" xmlns="http://www.w3.org/2000/svg">
<path d="M14.232 35.672C11.08 35.672 8.472 35.048 6.408 33.8C4.36 32.552 2.832 30.8 1.824 28.544C0.816 26.288 0.312 23.64 0.312 20.6V1.4H6.456V19.016C6.456 20.616 6.56 22.08 6.768 23.408C6.976 24.72 7.352 25.856 7.896 26.816C8.456 27.76 9.248 28.488 10.272 29C11.296 29.512 12.616 29.768 14.232 29.768C15.848 29.768 17.168 29.512 18.192 29C19.216 28.488 20 27.76 20.544 26.816C21.104 25.856 21.488 24.72 21.696 23.408C21.904 22.08 22.008 20.616 22.008 19.016V1.4H28.152V20.6C28.152 23.64 27.648 26.288 26.64 28.544C25.632 30.8 24.096 32.552 22.032 33.8C19.984 35.048 17.384 35.672 14.232 35.672ZM35.1491 35V1.4H47.4371C49.7571 1.4 51.7811 1.768 53.5091 2.504C55.2531 3.24 56.6051 4.36 57.5651 5.864C58.5251 7.368 59.0051 9.272 59.0051 11.576C59.0051 14.04 58.4771 16 57.4211 17.456C56.3811 18.896 55.0051 20.04 53.2931 20.888L60.8771 35H54.0131L47.5331 22.52C47.4851 22.52 47.4451 22.52 47.4131 22.52C47.3811 22.52 47.3411 22.52 47.2931 22.52H41.2931V35H35.1491ZM41.2931 17.384H45.8051C48.3331 17.384 50.0931 16.872 51.0851 15.848C52.0771 14.808 52.5731 13.496 52.5731 11.912C52.5731 10.232 52.0851 8.92 51.1091 7.976C50.1331 7.016 48.4451 6.536 46.0451 6.536H41.2931V17.384ZM65.196 35V1.4H77.868C81.116 1.4 83.524 2.096 85.092 3.488C86.676 4.864 87.468 6.872 87.468 9.512C87.468 11.48 87.02 13.128 86.124 14.456C85.244 15.768 83.916 16.728 82.14 17.336V16.184C84.828 16.76 86.836 17.816 88.164 19.352C89.492 20.888 90.156 22.92 90.156 25.448C90.156 28.472 89.18 30.824 87.228 32.504C85.276 34.168 82.604 35 79.212 35H65.196ZM71.34 29.528H78.3C79.98 29.528 81.316 29.184 82.308 28.496C83.316 27.808 83.82 26.568 83.82 24.776C83.82 22.952 83.292 21.712 82.236 21.056C81.18 20.4 79.868 20.072 78.3 20.072H71.34V29.528ZM71.34 14.6H76.956C78.444 14.6 79.556 14.296 80.292 13.688C81.044 13.08 81.42 12.104 81.42 10.76C81.42 9.368 81.044 8.376 80.292 7.784C79.556 7.176 78.444 6.872 76.956 6.872H71.34V14.6ZM113.579 27.032H99.5149V21.656H113.579V27.032ZM105.755 7.4H107.339L97.6429 35H91.6909L103.643 1.4H109.451L121.403 35H115.451L105.755 7.4ZM125.243 35V1.4H131.291L145.643 23.096V1.4H151.787V35H146.747L131.387 11.96V35H125.243ZM159.18 35V1.4H180.684V7.352H165.468V14.504H177.276V20.456H165.468V29.048H181.164V35H159.18ZM204.798 27.032H190.734V21.656H204.798V27.032ZM196.974 7.4H198.558L188.862 35H182.91L194.862 1.4H200.67L212.622 35H206.67L196.974 7.4ZM216.462 35V1.4H228.75C231.07 1.4 233.094 1.768 234.822 2.504C236.566 3.24 237.918 4.36 238.878 5.864C239.838 7.368 240.318 9.272 240.318 11.576C240.318 14.04 239.79 16 238.734 17.456C237.694 18.896 236.318 20.04 234.606 20.888L242.19 35H235.326L228.846 22.52C228.798 22.52 228.758 22.52 228.726 22.52C228.694 22.52 228.654 22.52 228.606 22.52H222.606V35H216.462ZM222.606 17.384H227.118C229.646 17.384 231.406 16.872 232.398 15.848C233.39 14.808 233.886 13.496 233.886 11.912C233.886 10.232 233.398 8.92 232.422 7.976C231.446 7.016 229.758 6.536 227.358 6.536H222.606V17.384ZM256.253 35.672C254.893 35.672 253.493 35.536 252.053 35.264C250.613 35.008 249.277 34.696 248.045 34.328C246.813 33.944 245.837 33.576 245.117 33.224L245.837 26.696C246.957 27.24 248.125 27.744 249.341 28.208C250.557 28.672 251.805 29.048 253.085 29.336C254.365 29.624 255.661 29.768 256.973 29.768C258.605 29.768 259.917 29.448 260.909 28.808C261.901 28.168 262.397 27.192 262.397 25.88C262.397 24.872 262.117 24.064 261.557 23.456C260.997 22.832 260.141 22.28 258.989 21.8C257.837 21.304 256.365 20.744 254.573 20.12C252.781 19.496 251.173 18.792 249.749 18.008C248.325 17.208 247.197 16.2 246.365 14.984C245.533 13.768 245.117 12.216 245.117 10.328C245.117 8.472 245.573 6.824 246.485 5.384C247.397 3.928 248.757 2.792 250.565 1.976C252.389 1.144 254.653 0.727998 257.357 0.727998C259.405 0.727998 261.357 0.959998 263.213 1.424C265.069 1.872 266.653 2.36 267.965 2.888L267.341 9.176C265.453 8.328 263.677 7.688 262.013 7.256C260.365 6.808 258.685 6.584 256.973 6.584C255.181 6.584 253.797 6.88 252.821 7.472C251.845 8.064 251.357 8.952 251.357 10.136C251.357 11.08 251.629 11.84 252.173 12.416C252.717 12.992 253.493 13.488 254.501 13.904C255.509 14.304 256.717 14.728 258.125 15.176C260.557 15.944 262.597 16.792 264.245 17.72C265.909 18.632 267.157 19.744 267.989 21.056C268.837 22.352 269.26 23.96 269.26 25.88C269.26 26.84 269.109 27.888 268.805 29.024C268.501 30.144 267.901 31.208 267.005 32.216C266.109 33.224 264.797 34.056 263.069 34.712C261.357 35.352 259.085 35.672 256.253 35.672Z" fill="white"/>
</svg>
