<svg width="50" height="50" viewBox="0 0 50 50" fill="none" xmlns="http://www.w3.org/2000/svg">
<path fill-rule="evenodd" clip-rule="evenodd" d="M42.0988 7.17525C37.4785 2.55083 31.3359 0.00205712 24.7922 0C11.3077 0 0.332977 10.9727 0.326806 24.4633C0.324749 28.775 1.45205 32.9839 3.59352 36.695L0.121094 49.371L13.0892 45.9685C16.6624 47.9186 20.6862 48.9451 24.7798 48.9472H24.7901C38.2725 48.9472 49.2493 37.9724 49.2555 24.4818C49.2596 17.9463 46.717 11.7976 42.0988 7.17525ZM24.7922 44.8144H24.7839C21.1346 44.8144 17.5573 43.8332 14.4346 41.9797L13.6919 41.5395L5.99624 43.5575L8.0513 36.0531L7.56788 35.2838C5.53133 32.0459 4.45751 28.304 4.45957 24.4633C4.46368 13.252 13.587 4.1307 24.8025 4.1307C30.2333 4.1307 35.339 6.24954 39.1776 10.0922C43.0162 13.937 45.1289 19.0448 45.1268 24.4777C45.1207 35.6931 35.9994 44.8144 24.7922 44.8144ZM35.9459 29.5855C35.3349 29.279 32.3295 27.8 31.7679 27.5963C31.2083 27.3927 30.801 27.2898 30.3917 27.9008C29.9823 28.5117 28.8139 29.89 28.4559 30.2994C28.1 30.7067 27.7421 30.7581 27.1311 30.4516C26.5202 30.1451 24.5494 29.5012 22.2146 27.4173C20.3982 25.7963 19.1701 23.7947 18.8142 23.1817C18.4583 22.5687 18.7771 22.2396 19.0816 21.9351C19.3573 21.6615 19.6926 21.2213 19.9991 20.8633C20.3076 20.5095 20.4084 20.2544 20.6142 19.8451C20.8178 19.4378 20.717 19.0798 20.5627 18.7733C20.4084 18.4689 19.1865 15.4593 18.6784 14.2353C18.1826 13.0422 17.6786 13.2047 17.3022 13.1862C16.9463 13.1676 16.539 13.1656 16.1296 13.1656C15.7223 13.1656 15.0599 13.3178 14.5004 13.9308C13.9408 14.5439 12.361 16.0229 12.361 19.0304C12.361 22.04 14.5518 24.9467 14.8563 25.354C15.1607 25.7614 19.1659 31.9368 25.2982 34.5844C26.7567 35.2138 27.8964 35.5903 28.783 35.8721C30.2477 36.337 31.5807 36.2712 32.6339 36.1149C33.8085 35.94 36.2504 34.6358 36.7605 33.2081C37.2707 31.7805 37.2707 30.5545 37.1164 30.3014C36.9642 30.0443 36.5569 29.8921 35.9459 29.5855Z" fill="#01BBFF"/>
</svg>
